Coordinates
version=1
nRows=8
nColumns=63
inDegrees=yes

Units are S.I. units (second, meters, Newtons, ...)
If the header above contains a line with 'inDegrees', this indicates whether rotational values are in degrees (yes) or radians (no).

endheader
time	pelvis_tilt	pelvis_list	pelvis_rotation	pelvis_tx	pelvis_ty	pelvis_tz	hip_flexion_r	hip_adduction_r	hip_rotation_r	knee_angle_r	knee_angle_r_beta	ankle_angle_r	subtalar_angle_r	mtp_angle_r	hip_flexion_l	hip_adduction_l	hip_rotation_l	knee_angle_l	knee_angle_l_beta	ankle_angle_l	subtalar_angle_l	mtp_angle_l	L5_S1_Flex_Ext	L5_S1_Lat_Bending	L5_S1_axial_rotation	L4_L5_Flex_Ext	L4_L5_Lat_Bending	L4_L5_axial_rotation	L3_L4_Flex_Ext	L3_L4_Lat_Bending	L3_L4_axial_rotation	L2_L3_Flex_Ext	L2_L3_Lat_Bending	L2_L3_axial_rotation	L1_L2_Flex_Ext	L1_L2_Lat_Bending	L1_L2_axial_rotation	L1_T12_Flex_Ext	L1_T12_Lat_Bending	L1_T12_axial_rotation	Abs_r3	Abs_r2	Abs_r1	Abs_t1	Abs_t2	neck_flexion	neck_bending	neck_rotation	arm_flex_r	arm_add_r	arm_rot_r	elbow_flex_r	pro_sup_r	wrist_flex_r	wrist_dev_r	arm_flex_l	arm_add_l	arm_rot_l	elbow_flex_l	pro_sup_l	wrist_flex_l	wrist_dev_l
3.869565	-3.708692	1.456762	89.970766	0.207046	0.766078	0.763752	7.351714	2.959235	9.548024	19.982143	0.348754	27.059015	-16.307116	0.000000	1.282233	-0.678939	6.807528	3.789476	0.066139	30.881670	-5.322918	0.000000	0.109779	-0.326169	-0.397602	0.203870	-0.433805	-0.422453	0.180355	-0.793047	-0.422453	0.125466	-0.793047	-0.347902	0.101940	-0.665124	-0.323052	0.062728	-0.505236	-0.298202	0.784138	-3.689687	-2.211345	0.000000	0.000000	12.165453	7.997238	-0.345823	12.537122	-26.491404	-13.268606	131.254978	84.481665	-9.326066	-0.504047	2.165656	-22.504402	46.172681	39.886492	88.441229	4.275665	14.867110
3.891304	-4.142035	1.727801	89.459295	0.208959	0.765575	0.763276	7.507680	2.746591	10.385739	20.914146	0.365021	27.558883	-16.817306	0.000000	1.175617	-0.256766	6.251283	4.393359	0.076679	31.194580	-5.477047	0.000000	0.090209	-0.393276	-0.426253	0.167527	-0.523058	-0.452894	0.148204	-0.956212	-0.452894	0.103100	-0.956212	-0.372972	0.083768	-0.801969	-0.346331	0.051545	-0.609185	-0.319690	0.644354	-4.448822	-2.370694	0.000000	0.000000	11.285691	8.066259	-0.082533	10.533985	-26.259297	-9.712565	128.866341	82.904343	-9.962104	-1.012235	1.037139	-22.477873	43.488765	39.921684	88.340467	4.256809	14.446101
3.913043	-4.533306	2.024603	88.961930	0.210931	0.765371	0.762357	7.526490	2.563193	11.150476	21.679066	0.378371	28.008309	-17.148354	0.000000	1.032510	0.118196	5.757048	5.032506	0.087834	31.506734	-5.658045	0.000000	0.071863	-0.454552	-0.459269	0.133456	-0.604554	-0.487973	0.118063	-1.105197	-0.487973	0.082132	-1.105197	-0.401860	0.066732	-0.926922	-0.373156	0.041062	-0.704101	-0.344451	0.513308	-5.141982	-2.554314	0.000000	0.000000	10.479969	8.062342	0.361896	8.577844	-26.062073	-6.478134	126.393688	81.365709	-9.414692	-1.201065	-0.202949	-22.458889	40.779463	40.058397	88.246352	4.196098	14.126351
3.934783	-4.866570	2.340251	88.493501	0.212892	0.765452	0.761016	7.417383	2.422349	11.853457	22.281259	0.388881	28.388965	-17.370516	0.000000	0.863473	0.431943	5.355513	5.702729	0.099531	31.809343	-5.894733	0.000000	0.055503	-0.508070	-0.496813	0.103075	-0.675733	-0.527864	0.091186	-1.235320	-0.527864	0.063434	-1.235320	-0.434711	0.051540	-1.036055	-0.403660	0.031714	-0.787000	-0.372610	0.396453	-5.747385	-2.763124	0.000000	0.000000	9.724863	7.974724	0.934494	6.698150	-25.915858	-3.537215	123.749266	80.163408	-7.854591	-1.616737	-1.504388	-22.449235	38.166582	40.282568	88.152420	4.084837	13.862622
3.956522	-5.134423	2.664980	88.064209	0.214765	0.765777	0.759305	7.193520	2.318926	12.434059	22.723143	0.396594	28.717446	-17.433172	0.000000	0.681889	0.684858	5.094489	6.402081	0.111737	32.082860	-6.226922	0.000000	0.041593	-0.553153	-0.542618	0.077243	-0.735693	-0.576532	0.068333	-1.344935	-0.576532	0.047537	-1.344935	-0.474791	0.038623	-1.127989	-0.440877	0.023766	-0.856833	-0.406964	0.297096	-6.257373	-3.017879	0.000000	0.000000	8.998494	7.833537	1.608480	5.010386	-25.896733	-0.672438	120.937153	79.142128	-5.934396	-2.055553	-2.860918	-22.440597	35.631053	40.603868	88.060651	3.921116	13.622703
3.978261	-5.327651	2.994216	87.667952	0.216516	0.766305	0.757261	6.865950	2.260936	12.912088	23.013847	0.401667	28.979440	-17.386767	0.000000	0.487510	0.865789	4.930310	7.115602	0.124191	32.337150	-6.612868	0.000000	0.030401	-0.589510	-0.581908	0.056457	-0.784049	-0.618277	0.049945	-1.433335	-0.618277	0.034745	-1.433335	-0.509170	0.028230	-1.202129	-0.472800	0.017371	-0.913151	-0.436431	0.217149	-6.668658	-3.236399	0.000000	0.000000	8.249008	7.697873	2.260492	3.488680	-26.020342	2.068743	117.971780	78.318809	-3.850929	-2.498795	-4.173895	-22.424590	33.279768	41.000934	87.986629	3.814019	13.514548
4.000000	-5.444406	3.327578	87.306721	0.218079	0.766966	0.754987	6.455419	2.250677	13.310983	23.187242	0.404694	29.173145	-17.305248	0.000000	0.286730	0.982158	4.899151	7.846573	0.136949	32.572747	-7.108158	0.000000	0.020283	-0.616386	-0.615136	0.037668	-0.819794	-0.653582	0.033323	-1.498682	-0.653582	0.023182	-1.498682	-0.538244	0.018835	-1.256935	-0.499798	0.011590	-0.954782	-0.461352	0.144881	-6.972685	-3.421201	0.000000	0.000000	7.471097	7.544204	2.827909	2.266335	-26.329187	4.844968	114.844431	77.746770	-1.862946	-3.010458	-5.381876	-22.406231	31.236474	41.443583	87.925442	3.740485	13.435069
4.021739	-5.491440	3.665225	86.991570	0.219431	0.767715	0.752571	5.976496	2.280972	13.624791	23.265271	0.406056	29.296748	-17.231463	0.000000	0.081439	1.040808	4.985491	8.586775	0.149868	32.790902	-7.682293	0.000000	0.010460	-0.634865	-0.637674	0.019426	-0.844371	-0.677529	0.017185	-1.543612	-0.677529	0.011955	-1.543612	-0.557965	0.009714	-1.294617	-0.518110	0.005977	-0.983406	-0.478256	0.074718	-7.181723	-3.546554	0.000000	0.000000	6.631671	7.401872	3.244524	1.351585	-26.801486	7.647975	111.568361	77.474678	-0.162343	-3.711458	-6.422913	-22.384320	29.576542	41.893281	87.877577	3.727851	13.386919
